<svg width="210" height="106" viewBox="0 0 210 106" fill="none" xmlns="http://www.w3.org/2000/svg">
<path d="M12.9347 27.176C12.9347 25.352 13.3667 22.136 14.2307 17.528C15.0947 12.92 15.6227 10.008 15.8147 8.792L13.2707 3.656C17.3347 1.352 20.7907 0.199999 23.6387 0.199999C25.0467 0.199999 26.1027 0.679998 26.8067 1.64C29.4627 0.711998 31.9107 0.247998 34.1507 0.247998C38.3107 0.247998 41.5427 1.608 43.8467 4.328C46.1507 7.016 47.3027 10.376 47.3027 14.408C47.3027 19.72 45.3507 24.6 41.4467 29.048C39.5587 31.192 37.0627 32.92 33.9587 34.232C30.8867 35.544 27.5907 36.2 24.0707 36.2C20.5507 36.2 17.8147 35.432 15.8627 33.896C13.9107 32.328 12.9347 30.088 12.9347 27.176ZM23.1107 29C23.7827 29.128 24.5347 29.192 25.3667 29.192C28.8547 29.192 31.5747 27.944 33.5267 25.448C35.4787 22.92 36.4547 19.816 36.4547 16.136C36.4547 13.16 35.7827 10.792 34.4387 9.032C33.0947 7.272 31.1587 6.392 28.6307 6.392C28.2467 6.392 27.6067 6.456 26.7107 6.584C26.4867 8.216 25.8947 11.864 24.9347 17.528C24.0067 23.16 23.3987 26.984 23.1107 29ZM67.8163 28.328L66.1363 23.48C64.4723 23.48 62.7923 23.224 61.0963 22.712C60.7443 24.76 60.5683 26.232 60.5683 27.128C60.5683 30.232 61.0483 32.552 62.0083 34.088C60.0883 35.528 58.0883 36.248 56.0083 36.248C53.9283 36.248 52.4403 35.656 51.5443 34.472C50.6483 33.256 50.2003 31.464 50.2003 29.096C50.2003 26.696 51.2083 19.928 53.2243 8.792L50.6803 3.656C54.2643 1.352 57.5603 0.199999 60.5683 0.199999C62.8723 0.199999 64.6483 0.679998 65.8963 1.64C68.2963 0.679998 70.4563 0.199999 72.3763 0.199999C75.3203 0.199999 77.6563 1.192 79.3843 3.176C81.1123 5.16 81.9763 7.544 81.9763 10.328C81.9763 12.408 81.4483 14.424 80.3923 16.376C79.3363 18.296 77.7843 19.864 75.7363 21.08C76.8243 24.184 78.0403 26.856 79.3843 29.096C80.7603 31.336 82.1203 32.824 83.4643 33.56C82.7923 34.264 81.7523 34.872 80.3443 35.384C78.9683 35.928 77.7203 36.2 76.6003 36.2C74.4243 36.2 72.6803 35.656 71.3683 34.568C70.0563 33.448 68.8723 31.368 67.8163 28.328ZM63.2083 17.48C65.7683 17.48 67.7523 16.824 69.1603 15.512C70.6003 14.2 71.3203 12.792 71.3203 11.288C71.3203 9.784 70.9043 8.584 70.0723 7.688C69.2403 6.792 68.0563 6.344 66.5203 6.344C65.6883 6.344 64.8563 6.456 64.0243 6.68C63.0003 12.792 62.3603 16.376 62.1043 17.432C62.3283 17.464 62.6963 17.48 63.2083 17.48ZM90.9234 36.248C89.0354 36.248 87.6434 35.656 86.7474 34.472C85.8514 33.256 85.4034 31.464 85.4034 29.096C85.4034 26.696 86.4114 19.928 88.4274 8.792L85.8834 3.656C89.4994 1.32 92.7954 0.151999 95.7714 0.151999C97.6594 0.151999 98.8274 1.048 99.2754 2.84C102.891 2.744 107.403 1.928 112.811 0.391999C113.067 1.448 113.195 2.488 113.195 3.512C113.195 6.104 112.331 8.056 110.603 9.368C108.907 10.68 106.715 11.336 104.027 11.336C102.203 11.336 100.411 10.952 98.6514 10.184C98.3954 11.624 97.9474 13.976 97.3074 17.24C98.4914 17.464 99.4994 17.576 100.331 17.576C101.643 17.32 103.083 16.952 104.651 16.472C104.811 17.016 104.891 17.912 104.891 19.16C104.891 20.376 104.395 21.352 103.403 22.088C102.411 22.824 101.291 23.192 100.043 23.192C98.8274 23.192 97.5794 23.048 96.2994 22.76C95.9474 24.776 95.7714 26.68 95.7714 28.472H103.547C105.979 28.12 108.427 27.496 110.891 26.6C111.083 27.176 111.179 27.96 111.179 28.952C111.179 30.84 110.619 32.52 109.499 33.992C108.411 35.464 106.891 36.2 104.939 36.2C103.915 36.2 102.411 35.992 100.427 35.576C98.4754 35.192 97.0194 34.952 96.0594 34.856C94.5234 35.784 92.8114 36.248 90.9234 36.248ZM142.722 7.256L142.338 18.68C142.338 22.616 142.658 25.928 143.298 28.616C143.97 31.304 145.202 33.16 146.994 34.184C144.786 35.56 142.546 36.248 140.274 36.248C136.274 36.248 133.81 33.016 132.882 26.552H123.09C122.482 28.632 122.178 30.232 122.178 31.352C122.178 32.44 122.306 33.32 122.562 33.992C120.194 35.496 118.082 36.248 116.226 36.248C113.378 36.248 111.954 34.52 111.954 31.064C111.954 29.336 112.482 27.16 113.538 24.536C114.626 21.912 116.05 18.904 117.81 15.512C119.602 12.12 120.738 9.88 121.218 8.792C120.866 7.064 120.466 5.368 120.018 3.704C121.682 2.552 123.282 1.688 124.818 1.112C126.386 0.503999 128.066 0.199999 129.858 0.199999C131.682 0.199999 132.946 0.599998 133.65 1.4C135.474 0.599998 136.978 0.199999 138.162 0.199999C139.346 0.199999 140.226 0.391998 140.802 0.775997C141.378 1.16 141.794 1.72 142.05 2.456C142.498 3.736 142.722 5.336 142.722 7.256ZM133.074 8.36H131.538C128.658 13.928 126.514 18.312 125.106 21.512H132.546C132.546 18.024 132.722 13.64 133.074 8.36ZM187.099 36.248C185.019 36.248 183.531 35.656 182.635 34.472C181.739 33.256 181.291 31.48 181.291 29.144C181.291 26.808 182.043 21.432 183.547 13.016H182.779C180.827 15.576 179.211 18.632 177.931 22.184C176.651 25.736 175.867 28.936 175.579 31.784C174.011 33.256 172.203 33.992 170.155 33.992C169.323 33.992 168.587 33.704 167.947 33.128C167.339 32.52 166.731 31.48 166.123 30.008C164.939 27.032 164.091 21.368 163.579 13.016H162.811C161.243 19.896 160.459 24.744 160.459 27.56C160.459 30.376 160.939 32.552 161.899 34.088C159.979 35.528 157.979 36.248 155.899 36.248C153.819 36.248 152.331 35.656 151.435 34.472C150.539 33.256 150.091 31.464 150.091 29.096C150.091 26.696 151.099 19.928 153.115 8.792L150.571 3.656C154.187 1.32 157.483 0.151999 160.459 0.151999C161.771 0.151999 162.875 0.296 163.771 0.584C164.699 0.839998 165.579 1.352 166.411 2.12C167.275 2.888 167.979 3.96 168.523 5.336C169.771 8.44 170.667 12.968 171.211 18.92H171.787C173.451 14.024 175.755 9.816 178.699 6.296C180.299 4.408 182.203 2.92 184.411 1.832C186.651 0.743999 189.067 0.199999 191.659 0.199999C194.123 0.199999 195.355 1.688 195.355 4.664C195.355 5.656 194.731 9.352 193.483 15.752C192.267 22.12 191.659 25.912 191.659 27.128C191.659 30.232 192.139 32.552 193.099 34.088C191.179 35.528 189.179 36.248 187.099 36.248ZM6.74156 99.248C4.69356 99.248 3.22156 98.656 2.32556 97.472C1.42956 96.256 0.981563 94.464 0.981563 92.096C0.981563 89.696 1.98956 82.928 4.00556 71.792L1.46156 66.656C5.07756 64.32 8.37356 63.152 11.3496 63.152C13.3336 63.152 14.5176 64.112 14.9016 66.032C18.1976 64.144 21.4296 63.2 24.5976 63.2C26.6776 63.2 28.5016 63.68 30.0696 64.64C31.9256 65.76 32.8536 67.696 32.8536 70.448C32.8536 74.992 30.3416 78.288 25.3176 80.336C30.4376 81.232 32.9976 84.096 32.9976 88.928C32.9976 92.064 31.7016 94.56 29.1096 96.416C26.5176 98.272 23.6056 99.2 20.3736 99.2C17.1736 99.2 14.5976 98.528 12.6456 97.184C10.7576 98.56 8.78956 99.248 6.74156 99.248ZM21.9096 87.872C21.9096 86.368 21.4616 85.264 20.5656 84.56C19.7016 83.856 18.5336 83.504 17.0616 83.504C15.5896 83.504 13.9416 83.808 12.1176 84.416C11.6056 87.136 11.3496 89.456 11.3496 91.376C12.9176 92.112 14.5496 92.48 16.2456 92.48C17.9416 92.48 19.3016 92.08 20.3256 91.28C21.3816 90.48 21.9096 89.344 21.9096 87.872ZM18.7896 69.536C17.5416 69.536 16.1976 69.776 14.7576 70.256C14.5656 71.504 13.9736 74.704 12.9816 79.856C15.6376 79.664 17.8936 79.024 19.7496 77.936C21.6056 76.816 22.5336 75.216 22.5336 73.136C22.5336 70.736 21.2856 69.536 18.7896 69.536ZM70.1897 97.088C68.2697 98.528 66.3817 99.248 64.5257 99.248C62.6697 99.248 61.1977 98.768 60.1097 97.808C59.0217 96.848 58.4777 95.408 58.4777 93.488C58.4777 92.944 58.4937 92.528 58.5257 92.24L58.0457 92.096C54.8777 96.832 50.6217 99.2 45.2777 99.2C40.1257 99.2 37.5497 96.48 37.5497 91.04C37.5497 89.216 37.8057 86.8 38.3177 83.792C38.8297 80.752 39.2617 78.192 39.6137 76.112C39.9977 74 40.2537 72.56 40.3817 71.792L37.8377 66.656C39.8537 65.504 41.5977 64.64 43.0697 64.064C44.5737 63.488 46.0777 63.2 47.5817 63.2C49.0857 63.2 50.0937 63.6 50.6057 64.4C51.1497 65.168 51.4217 66.096 51.4217 67.184C51.4217 68.272 50.8777 71.76 49.7897 77.648C48.7337 83.536 48.2057 86.976 48.2057 87.968C48.2057 90.496 49.0697 91.76 50.7977 91.76C52.0777 91.76 53.5337 90.944 55.1657 89.312C56.7977 87.68 58.1257 85.44 59.1497 82.592C58.4777 80.64 58.1417 78.624 58.1417 76.544C58.1417 72.832 59.0537 69.68 60.8777 67.088C62.7337 64.496 65.3417 63.2 68.7017 63.2C70.5577 63.2 72.0457 63.504 73.1657 64.112C72.8777 65.84 72.3177 68.976 71.4857 73.52C69.6617 83.152 68.7497 88.688 68.7497 90.128C68.7497 93.232 69.2297 95.552 70.1897 97.088ZM94.6288 91.328L92.9488 86.48C91.2848 86.48 89.6048 86.224 87.9088 85.712C87.5568 87.76 87.3808 89.232 87.3808 90.128C87.3808 93.232 87.8608 95.552 88.8208 97.088C86.9008 98.528 84.9008 99.248 82.8208 99.248C80.7408 99.248 79.2528 98.656 78.3568 97.472C77.4608 96.256 77.0128 94.464 77.0128 92.096C77.0128 89.696 78.0208 82.928 80.0368 71.792L77.4928 66.656C81.0768 64.352 84.3728 63.2 87.3808 63.2C89.6848 63.2 91.4608 63.68 92.7088 64.64C95.1088 63.68 97.2688 63.2 99.1888 63.2C102.133 63.2 104.469 64.192 106.197 66.176C107.925 68.16 108.789 70.544 108.789 73.328C108.789 75.408 108.261 77.424 107.205 79.376C106.149 81.296 104.597 82.864 102.549 84.08C103.637 87.184 104.853 89.856 106.197 92.096C107.573 94.336 108.933 95.824 110.277 96.56C109.605 97.264 108.565 97.872 107.157 98.384C105.781 98.928 104.533 99.2 103.413 99.2C101.237 99.2 99.4928 98.656 98.1808 97.568C96.8688 96.448 95.6848 94.368 94.6288 91.328ZM90.0208 80.48C92.5808 80.48 94.5648 79.824 95.9728 78.512C97.4128 77.2 98.1328 75.792 98.1328 74.288C98.1328 72.784 97.7168 71.584 96.8848 70.688C96.0528 69.792 94.8688 69.344 93.3328 69.344C92.5008 69.344 91.6688 69.456 90.8368 69.68C89.8128 75.792 89.1728 79.376 88.9168 80.432C89.1408 80.464 89.5088 80.48 90.0208 80.48ZM132.76 88.784L130.312 83.744C133.736 81.472 136.824 80.336 139.576 80.336C141.88 80.336 143.032 81.632 143.032 84.224C143.032 84.96 142.584 87.216 141.688 90.992C140.824 94.736 140.392 97.6 140.392 99.584C140.392 101.568 140.824 103.04 141.688 104C139.896 105.312 138.024 105.968 136.072 105.968C134.12 105.968 132.728 105.328 131.896 104.048C131.096 102.768 130.696 100.896 130.696 98.432C128.968 98.944 127.176 99.2 125.32 99.2C120.968 99.2 117.448 97.856 114.76 95.168C112.104 92.48 110.776 88.512 110.776 83.264C110.776 81.024 111.256 78.752 112.216 76.448C113.176 74.112 114.536 71.952 116.296 69.968C118.056 67.984 120.344 66.368 123.16 65.12C126.008 63.84 128.936 63.2 131.944 63.2C134.984 63.2 137.352 63.76 139.048 64.88C140.776 66 141.64 67.552 141.64 69.536C141.64 71.52 140.984 73.072 139.672 74.192C138.392 75.28 136.92 75.824 135.256 75.824C133.592 75.824 132.088 75.472 130.744 74.768C129.432 74.032 128.376 72.992 127.576 71.648C125.848 72.48 124.36 74.112 123.112 76.544C121.864 78.976 121.24 81.52 121.24 84.176C121.24 86.832 121.752 88.832 122.776 90.176C123.832 91.488 125.144 92.144 126.712 92.144C128.984 92.144 131 91.024 132.76 88.784ZM152.377 99.248C150.489 99.248 149.097 98.656 148.201 97.472C147.305 96.256 146.857 94.464 146.857 92.096C146.857 89.696 147.865 82.928 149.881 71.792L147.337 66.656C150.953 64.32 154.249 63.152 157.225 63.152C159.113 63.152 160.281 64.048 160.729 65.84C164.345 65.744 168.857 64.928 174.265 63.392C174.521 64.448 174.649 65.488 174.649 66.512C174.649 69.104 173.785 71.056 172.057 72.368C170.361 73.68 168.169 74.336 165.481 74.336C163.657 74.336 161.865 73.952 160.105 73.184C159.849 74.624 159.401 76.976 158.761 80.24C159.945 80.464 160.953 80.576 161.785 80.576C163.097 80.32 164.537 79.952 166.105 79.472C166.265 80.016 166.345 80.912 166.345 82.16C166.345 83.376 165.849 84.352 164.857 85.088C163.865 85.824 162.745 86.192 161.497 86.192C160.281 86.192 159.033 86.048 157.753 85.76C157.401 87.776 157.225 89.68 157.225 91.472H165.001C167.433 91.12 169.881 90.496 172.345 89.6C172.537 90.176 172.633 90.96 172.633 91.952C172.633 93.84 172.073 95.52 170.953 96.992C169.865 98.464 168.345 99.2 166.393 99.2C165.369 99.2 163.865 98.992 161.881 98.576C159.929 98.192 158.473 97.952 157.513 97.856C155.977 98.784 154.265 99.248 152.377 99.248ZM194.191 91.328L192.511 86.48C190.847 86.48 189.167 86.224 187.471 85.712C187.119 87.76 186.943 89.232 186.943 90.128C186.943 93.232 187.423 95.552 188.383 97.088C186.463 98.528 184.463 99.248 182.383 99.248C180.303 99.248 178.815 98.656 177.919 97.472C177.023 96.256 176.575 94.464 176.575 92.096C176.575 89.696 177.583 82.928 179.599 71.792L177.055 66.656C180.639 64.352 183.935 63.2 186.943 63.2C189.247 63.2 191.023 63.68 192.271 64.64C194.671 63.68 196.831 63.2 198.751 63.2C201.695 63.2 204.031 64.192 205.759 66.176C207.487 68.16 208.351 70.544 208.351 73.328C208.351 75.408 207.823 77.424 206.767 79.376C205.711 81.296 204.159 82.864 202.111 84.08C203.199 87.184 204.415 89.856 205.759 92.096C207.135 94.336 208.495 95.824 209.839 96.56C209.167 97.264 208.127 97.872 206.719 98.384C205.343 98.928 204.095 99.2 202.975 99.2C200.799 99.2 199.055 98.656 197.743 97.568C196.431 96.448 195.247 94.368 194.191 91.328ZM189.583 80.48C192.143 80.48 194.127 79.824 195.535 78.512C196.975 77.2 197.695 75.792 197.695 74.288C197.695 72.784 197.279 71.584 196.447 70.688C195.615 69.792 194.431 69.344 192.895 69.344C192.063 69.344 191.231 69.456 190.399 69.68C189.375 75.792 188.735 79.376 188.479 80.432C188.703 80.464 189.071 80.48 189.583 80.48Z" fill="#323E3F"/>
</svg>
